<?xml version="1.0" encoding="utf-8"?>
<!-- Generator: Adobe Illustrator 22.0.0, SVG Export Plug-In . SVG Version: 6.00 Build 0)  -->
<svg version="1.1" id="Layer_1" xmlns="http://www.w3.org/2000/svg" xmlns:xlink="http://www.w3.org/1999/xlink" x="0px" y="0px"
	 viewBox="0 0 512 512" style="enable-background:new 0 0 512 512;" xml:space="preserve">
<style type="text/css">
	.st0{fill:#FFFFFF;}
</style>
<path class="st0" d="M0,96V20C0,9,9,0,20,0h76c11,0,20,9,20,20s-9,20-20,20H40v56c0,11-9,20-20,20S0,107,0,96z M492,0h-76
	c-11,0-20,9-20,20s9,20,20,20h56v56c0,11,9,20,20,20s20-9,20-20V20C512,9,503,0,492,0z M96,472H40v-56c0-11-9-20-20-20s-20,9-20,20
	v76c0,11,9,20,20,20h76c11,0,20-9,20-20S107,472,96,472z M492,396c-11,0-20,9-20,20v56h-56c-11,0-20,9-20,20s9,20,20,20h76
	c11,0,20-9,20-20v-76C512,405,503,396,492,396z M238.5,98.5v120c0,11-9,20-20,20h-120c-11,0-20-9-20-20v-120c0-11,9-20,20-20h120
	C229.5,78.5,238.5,87.5,238.5,98.5z M198.5,118.5h-80v80h80V118.5z M423.5,238.5h-120c-11,0-20-9-20-20v-120c0-11,9-20,20-20h120
	c11,0,20,9,20,20v120C443.5,229.5,434.5,238.5,423.5,238.5z M403.5,118.5h-80v80h80V118.5z M238.5,303.5v120c0,11-9,20-20,20h-120
	c-11,0-20-9-20-20v-120c0-11,9-20,20-20h120C229.5,283.5,238.5,292.5,238.5,303.5z M198.5,323.5h-80v80h80V323.5z M397.8,417.8
	h-68.5c-11,0-20-9-20-20v-68.5c0-11,9-20,20-20h68.5c11,0,20,9,20,20v68.5C417.8,408.8,408.8,417.8,397.8,417.8z M377.8,349.3h-28.5
	v28.5h28.5V349.3z"/>
</svg>
